<svg xmlns="http://www.w3.org/2000/svg" enable-background="new 0 0 192 192" height="192" viewBox="0 0 192 192" width="192"><rect fill="none" height="192" width="192"/><g><g><circle cx="96" cy="96" fill="#FFFFFF" r="88"/></g></g><g><path d="M183.99,96c-0.22,38.38-25.27,70.9-59.99,82.48c-8.8,2.93-18.21,4.52-28,4.52 C47.57,183.01,8.27,144.1,8,96c0,0.17,0,0.33,0,0.5C8,144.82,47.4,184,96,184c9.79,0,19.2-1.59,28-4.52 c34.87-11.63,60-44.39,60-82.98C184,96.33,183.99,96.17,183.99,96z" enable-background="new" opacity=".1"/><path d="M184,96c0-38.81-25.13-71.75-60-83.45C115.2,9.6,105.79,8,96,8 C47.4,8,8,47.4,8,96" enable-background="new" fill="#FFFFFF" opacity=".4"/></g><g><g><path d="M132.74,86.26L142,81l6.23-10.23C146.37,66.92,143,58,143,58s-6.67-3.85-9.64-6.36L124,57l-4.86,8.86 C122.14,68.17,125,77,125,77S131.56,81.8,132.74,86.26z" fill="#0066DA"/><path d="M148.23,70.77C151.93,78.39,154,86.96,154,96c0,32.03-25.97,58-58,58s-58-25.97-58-58 c0-32.03,25.97-58,58-58c14.23,0,27.26,5.14,37.36,13.64l-14.22,14.22C112.73,60.94,104.71,58,96,58c-20.99,0-38,17.01-38,38 s17.01,38,38,38s38-17.01,38-38c0-3.37-0.44-6.63-1.26-9.74L148.23,70.77z M119.14,65.86L96.05,88.95l-8.76-8.76 c-2.34-2.34-6.14-2.34-8.49,0l-8.99,8.99c-2.37,2.37-2.34,6.22,0.07,8.56l20.46,19.79c3.14,3.04,8.13,2.99,11.22-0.09l31.17-31.17 C130.56,78.04,125.69,70.91,119.14,65.86z M148.23,70.77l10.52-10.52c2.34-2.34,2.34-6.14,0-8.49l-8.51-8.51 c-2.34-2.34-6.14-2.34-8.49,0l-8.4,8.4C139.56,56.88,144.66,63.38,148.23,70.77z" fill="#2684FC"/></g></g></svg>