<svg width="700" height="380" viewBox="0 0 " fill="none" xmlns="http://www.w3.org/2000/svg">
<g clip-path="url(#clip0)">
<path d="M830.686 368.542C839.315 405.528 810.786 440.807 772.823 440.742L637.711 440.549L625.153 440.517L217.212 439.196L82.6484 438.745C82.6484 438.745 31.7725 349.179 62.1048 259C65.0994 250.108 68.8668 241.184 73.568 232.388C81.4248 217.632 91.8576 203.134 105.285 189.345C163.02 130.096 216.278 122.042 259.941 126.069C294.814 129.291 323.569 140.18 343.661 138.859C388.967 135.895 403.489 42.6565 537.505 14.4979C564.231 8.89199 594.274 5.63796 624.22 5.60575C708.004 5.50909 791.531 30.6069 802.543 99.8756C805.699 119.69 802.447 140.213 796.393 159.35C790.887 176.78 782.161 195.982 769.699 217.053C729.932 284.292 762.454 314.995 809.466 341.672C811.398 342.767 813.33 343.895 815.23 345.055C823.666 350.081 828.367 358.586 830.686 368.542Z"/>
<path d="M775.27 439.84C806.89 439.84 832.2 413.872 832.2 382.234L683.404 311.032V273.917H680.634V196.787H637.841V273.95H587.158V224.237H509.975V131.256H461.353V252.138H446.186V149.201H407.16V252.138H317.258V346.279H271.566V282.616H229.03V346.279H216.697V213.734H169.846V346.279H153.038V440.323L775.27 439.84Z" />
<path d="M200.308 228.168C199.792 226.235 199.503 224.108 199.503 221.917C199.503 212.091 205.202 204.101 212.222 204.101C213.252 204.101 214.25 204.262 215.216 204.584C216.343 177.972 228 157.063 242.2 157.063C255.724 157.063 266.929 176.039 268.958 200.815C279.004 207.645 285.927 221.66 285.927 237.801C285.927 245.501 284.35 252.718 281.613 258.904C290.951 264.671 296.908 273.337 296.908 283.035C296.908 300.368 277.974 314.415 254.629 314.415C237.144 314.415 222.139 306.554 215.699 295.31C213.896 295.729 212.061 295.954 210.161 295.954C194.254 295.954 181.374 280.297 181.374 260.998C181.342 245.92 189.231 233.033 200.308 228.168Z" fill="#ACD29A"/>
<path d="M200.307 228.168C200.307 228.168 228.321 217.246 249.638 236.48C270.986 255.714 285.83 225.397 278.714 211.318C283.19 218.502 285.895 227.749 285.895 237.865C285.895 245.565 284.317 252.782 281.58 258.968C290.918 264.735 296.875 273.402 296.875 283.099C296.875 300.433 277.941 314.48 254.596 314.48C237.112 314.48 222.107 306.618 215.667 295.374C213.863 295.793 212.028 296.019 210.128 296.019C194.221 296.019 181.341 280.361 181.341 261.062C181.341 245.92 189.23 233.033 200.307 228.168Z" fill="#88B374"/>
<path d="M233.215 433.654C234.31 433.654 235.212 433.364 235.212 432.269V216.054C235.212 214.958 234.31 214.056 233.215 214.056C232.121 214.056 231.219 214.958 231.219 216.054V432.269C231.219 433.364 232.121 433.654 233.215 433.654Z" fill="#7A3909"/>
<path d="M233.215 292.861C238.883 292.861 243.648 290.832 247.448 286.869C258.009 275.754 257.011 253.008 256.947 252.041C256.882 250.946 255.949 250.076 254.854 250.14C253.759 250.205 252.922 251.139 252.954 252.234C252.954 252.46 253.92 274.239 244.518 284.13C241.491 287.32 237.756 288.866 233.183 288.866C232.088 288.866 231.187 289.769 231.187 290.864C231.187 291.959 232.121 292.861 233.215 292.861Z" fill="#7A3909"/>
<path d="M232.926 338.096C233.054 338.096 233.183 338.096 233.312 338.096C234.407 338.031 235.244 337.097 235.18 335.969C235.115 334.874 234.181 334.036 233.054 334.101C232.282 334.133 231.541 333.811 230.736 333.102C228.257 330.879 223.588 323.114 219.949 295.858C217.856 280.103 217.115 265.412 217.115 265.251C217.051 264.155 216.117 263.285 215.022 263.35C213.928 263.414 213.058 264.349 213.123 265.444C213.123 265.605 213.863 280.458 215.988 296.373C217.244 305.749 218.725 313.707 220.4 319.957C222.589 328.173 225.101 333.424 228.063 336.066C229.609 337.419 231.219 338.096 232.926 338.096Z" fill="#7A3909"/>
<path d="M109.922 186.929C115.879 175.266 118.648 162.217 118.358 149.105C117.65 117.724 127.084 74.4556 150.236 74.4556C178.121 74.4556 180.311 129.13 171.617 159.898C169.878 166.019 172.293 172.592 177.671 175.942C178.089 176.2 178.379 176.361 178.54 176.361C185.56 176.361 191.259 183.997 191.259 193.437C191.259 195.563 190.969 197.561 190.454 199.429C201.531 204.101 209.42 216.44 209.42 230.938C209.42 249.464 196.54 264.445 180.633 264.445C167.882 264.445 157.063 254.78 153.295 241.409C148.304 245.823 142.283 248.401 135.778 248.401C118.712 248.401 104.866 230.616 104.866 208.676C104.866 200.653 106.734 193.179 109.922 186.929Z" fill="#ACD29A"/>
<path d="M128.115 191.31C156.966 187.412 161.281 218.857 161.281 218.857C195.477 203.295 210.643 227.717 210.643 227.717L211.48 235.03C210.708 252.75 196.024 264.445 180.633 264.445C167.882 264.445 157.062 254.78 153.295 241.409C148.304 245.823 142.283 248.4 135.778 248.4C125.506 248.4 116.426 241.989 110.823 232.098C110.63 231.454 99.4889 195.176 128.115 191.31Z" fill="#88B374"/>
<path d="M152.071 433.654C153.166 433.654 154.229 434.363 154.229 433.268V217.052C154.229 215.957 153.327 215.055 152.232 215.055C151.138 215.055 150.236 215.957 150.236 217.052V433.268C150.236 434.363 150.977 433.654 152.071 433.654Z" fill="#7A3909"/>
<path d="M152.232 293.828C158.383 293.828 163.663 290.187 167.946 283.035C171.166 277.655 173.806 270.18 175.835 260.869C179.248 245.179 179.763 229.263 179.763 229.102C179.796 228.007 178.926 227.072 177.831 227.04C176.737 227.008 175.803 227.878 175.771 228.973C175.771 229.134 175.288 244.696 171.939 260.031C168.976 273.627 163.148 289.801 152.232 289.801C151.138 289.801 150.236 290.703 150.236 291.798C150.236 292.958 151.138 293.828 152.232 293.828Z" fill="#7A3909"/>
<path d="M152.04 339.095C152.136 339.095 152.265 339.095 152.362 339.095C153.456 339.03 154.294 338.096 154.229 336.968C154.165 335.873 153.199 335.035 152.104 335.1C151.846 335.1 151.428 335.067 150.848 334.487C148.369 332.103 143.925 322.212 142.122 282.842C141.092 260.16 141.478 238.542 141.478 238.317C141.51 237.221 140.609 236.319 139.514 236.287C138.419 236.255 137.517 237.157 137.485 238.252C137.485 238.478 137.099 260.225 138.129 283.035C138.741 296.47 139.707 307.65 141.027 316.284C142.766 327.593 145.052 334.487 148.079 337.355C149.528 338.772 151.009 339.095 152.04 339.095Z" fill="#7A3909"/>
<path d="M137.582 248.369C138.097 246.017 138.387 243.504 138.387 240.83C138.387 229.006 132.687 219.405 125.668 219.405C124.637 219.405 123.639 219.63 122.673 220.017C121.546 188.024 109.89 162.862 95.6896 162.862C82.1656 162.862 70.96 185.672 68.9314 215.506C58.885 223.722 51.9621 240.572 51.9621 259.999C51.9621 269.278 53.5398 277.945 56.2768 285.355C46.9389 292.282 40.9819 302.72 40.9819 314.383C40.9819 335.228 59.9154 352.111 83.2604 352.111C100.745 352.111 115.75 342.638 122.19 329.139C123.993 329.655 125.829 329.912 127.729 329.912C143.635 329.912 156.515 311.097 156.515 287.868C156.548 269.697 148.626 254.232 137.582 248.369Z" fill="#ACD29A"/>
<path d="M47.7438 293.925C52.2839 287.674 54.1193 279.91 52.9279 272.274C52.3161 268.343 51.9942 264.22 51.9942 259.967C51.9942 257.647 52.0907 255.327 52.2839 253.104C91.3425 255.778 89.7969 294.988 89.7969 294.988C89.7969 294.988 122.126 281.36 132.88 300.562C143.667 319.731 122.222 329.171 122.222 329.171C115.782 342.671 100.777 352.143 83.2925 352.143C59.9475 352.143 41.014 335.26 41.014 314.415C41.014 306.844 43.4934 299.821 47.7438 293.925Z" fill="#88B374"/>
<path d="M96.1083 433.364C97.2031 433.364 98.1046 433.364 98.1046 432.269V264.284C98.1046 263.189 97.2031 262.287 96.1083 262.287C95.0135 262.287 94.1118 263.189 94.1118 264.284V432.269C94.1118 433.364 95.0135 433.364 96.1083 433.364Z" fill="#7A3909"/>
<path d="M96.1085 320.344C101.776 320.344 106.541 318.314 110.341 314.351C120.902 303.236 119.904 280.49 119.84 279.523C119.775 278.428 118.842 277.558 117.747 277.623C116.652 277.687 115.815 278.621 115.847 279.717C115.847 279.942 116.813 301.722 107.411 311.58C104.384 314.77 100.649 316.316 96.0763 316.316C94.9815 316.316 94.0798 317.218 94.0798 318.314C94.112 319.441 95.0137 320.344 96.1085 320.344Z" fill="#7A3909"/>
<path d="M94.4987 385.617C94.6275 385.617 94.7563 385.617 94.8851 385.617C95.9799 385.553 96.8171 384.619 96.7527 383.491C96.6883 382.396 95.7223 381.558 94.6275 381.622C93.8547 381.655 93.1141 381.332 92.3091 380.624C89.8297 378.401 85.1607 370.636 81.5221 343.38C79.4291 327.625 78.6885 312.933 78.6885 312.772C78.6241 311.677 77.6903 310.807 76.5955 310.872C75.5007 310.936 74.6313 311.87 74.6957 312.966C74.6957 313.127 75.4363 327.979 77.5615 343.895C78.8173 353.27 80.2985 361.228 81.9729 367.479C84.1625 375.694 86.6741 380.946 89.6365 383.588C91.1821 384.941 92.7921 385.617 94.4987 385.617Z" fill="#7A3909"/>
<path d="M456.297 11.534H460.29L460.257 11.2119L459.066 0.61214C459.034 0.257742 458.744 0 458.39 0C458.358 0 458.293 0 458.261 0C458.036 0.032218 457.842 0.128868 457.681 0.25774C457.488 0.41883 457.359 0.676576 457.327 0.934319L456.297 11.534Z" fill="#A2C5F9"/>
<path d="M459.903 9.11769H460.032L459.034 0.61214C459.002 0.257742 458.712 0 458.358 0C458.325 0 458.261 0 458.229 0C458.197 0.032218 458.164 0.0644321 458.132 0.09665C457.971 0.289958 457.842 0.547706 457.842 0.80545L457.778 6.92687C457.778 8.11893 458.712 9.08547 459.903 9.11769Z" fill="#AFCDFB"/>
<path d="M461.449 58.7657H453.753V397.538H461.449V58.7657Z" fill="#A2C5F9"/>
<path d="M461.449 58.7657H457.907V397.538H461.449V58.7657Z" fill="#AFCDFB"/>
<path d="M469.853 343.476H445.349V433.107H469.853V343.476Z" fill="#A2C5F9"/>
<path d="M469.853 343.476H455.266V433.107H469.853V343.476Z" fill="#AFCDFB"/>
<path d="M444.222 16.6567C444.222 20.845 450.533 24.2279 458.293 24.2279C458.873 24.2279 459.485 24.1957 460.032 24.1635C466.987 23.7124 472.365 20.5228 472.365 16.6567C472.365 12.7905 466.987 9.60094 460.032 9.14989C459.453 9.11767 458.873 9.08545 458.293 9.08545C450.501 9.08545 444.222 12.4683 444.222 16.6567Z" fill="#A2C5F9"/>
<path d="M445.381 65.4348H469.885L478.515 23.9702H438.072L445.381 65.4348Z" fill="#AFCDFB"/>
<path d="M480.704 20.8448H435.882V24.8399H480.704V20.8448Z" fill="#A2C5F9"/>
<path d="M465.828 343.476H450.178L452.465 336.549C452.658 335.937 453.237 335.518 453.881 335.518H461.223C462.028 335.518 462.736 336.001 463.026 336.742L465.828 343.476Z" fill="#A2C5F9"/>
<path d="M451.402 16.2701H451.499C451.757 13.0483 455.17 10.3097 460.032 9.11768C466.762 9.56873 472.01 12.565 472.332 16.2701H474.618L477.806 20.8128H480.672V24.8078H452.497V20.8128H448.343L451.402 16.2701Z" fill="#AFCDFB"/>
<path d="M475.617 25.9677H441.066L447.828 63.2761H467.663L475.617 25.9677Z" fill="#C7DCF9"/>
<path d="M471.431 17.1076C471.431 17.1076 468.79 11.3728 463.606 11.5338C463.606 11.5338 466.923 14.4657 466.601 17.1076C466.311 19.7172 471.431 17.1076 471.431 17.1076Z" fill="#C7DCF9"/>
<path d="M438.748 20.845H477.838L474.651 16.27H441.774L438.748 20.845Z" fill="#A2C5F9"/>
<path d="M473.331 27.2885H465.409L463.091 62.0839H465.409L473.331 27.2885Z" fill="#D2E4F9"/>
<path d="M704.591 409.297C678.992 417.996 631.851 440.356 577.691 425.181C523.53 410.006 459.42 423.216 378.888 439.647C378.502 439.711 378.115 439.808 377.697 439.872L824.729 439.228C790.339 400.405 743.971 395.927 704.591 409.297Z" fill="#88B374"/>
<path d="M333.228 427.565C289.243 441.29 243.004 424.73 158.415 411.488C73.8254 398.247 40.0798 439.937 40.0798 439.937L451.434 439.905C438.683 427.146 377.246 413.84 333.228 427.565Z" fill="#ACD29A"/>
<path d="M206.361 439.937L124.444 439.583L136.197 389.774C138.709 379.142 144.794 369.573 153.327 362.807C161.893 356.041 172.583 352.304 183.499 352.304H289.791V374.18H229.609L206.361 439.937Z" fill="#C0D9FF"/>
<path d="M320.091 352.497V352.304H360.824C362.241 352.304 363.625 352.369 365.042 352.497H421.263C432.179 352.497 442.869 356.235 451.434 363C460 369.766 466.085 379.335 468.565 389.967L480.286 439.744L397.467 439.583L386.841 394.8C384.233 383.684 374.992 375.469 363.883 374.18H314.907V352.497H320.091Z" fill="#1C468A"/>
<path d="M467.567 440.485L456.812 394.8C453.946 382.653 443.256 374.18 430.794 374.18H253.437C240.975 374.18 230.253 382.653 227.419 394.8L216.664 440.485H194.189L206.135 389.774C208.647 379.142 214.732 369.573 223.265 362.807C231.831 356.041 242.521 352.304 253.437 352.304H430.762C441.678 352.304 452.368 356.041 460.933 362.807C469.499 369.573 475.584 379.142 478.064 389.774L490.01 440.485H467.567Z" fill="#4A75CB"/>
<path d="M309.562 414.034C308.821 414.904 308.725 415.838 309.079 416.869C309.755 418.77 312.009 420.864 314.649 422.958C314.971 423.216 315.293 423.474 315.551 423.699C315.615 423.764 315.68 423.828 315.744 423.892C315.809 423.925 315.841 423.989 315.905 424.021C318.352 426.277 317.419 426.792 321.83 431.367C326.821 436.586 330.299 436.683 331.265 436.2C332.102 435.781 330.395 433.042 328.528 429.917C328.431 429.756 328.334 429.627 328.27 429.466C328.012 429.047 327.787 428.628 327.529 428.21C325.34 424.472 325.887 422.7 326.435 417.159C326.853 412.648 333.454 391.9 333.454 391.9L323.859 390.257C323.859 390.257 320.961 406.785 317.773 409.33C316.066 410.683 314.166 410.715 312.524 411.714C312.395 411.778 312.299 411.843 312.17 411.94C311.236 412.552 310.302 413.196 309.562 414.034Z" fill="#E49963"/>
<path d="M309.562 414.033C308.821 414.903 308.725 415.838 309.079 416.869C309.916 418.77 312.106 420.864 314.649 422.958C314.971 423.248 315.261 423.473 315.519 423.731C315.583 423.796 315.648 423.86 315.712 423.924C315.776 423.957 315.809 424.021 315.873 424.053C318.32 426.309 317.386 426.824 321.798 431.399C326.789 436.618 330.266 436.715 331.232 436.232C332.07 435.813 330.363 433.074 328.495 429.949C327.529 429.595 322.989 427.758 319.576 423.377C316.549 419.543 314.553 414.581 312.492 411.714C312.363 411.778 312.267 411.843 312.138 411.939C311.236 412.551 310.302 413.196 309.562 414.033Z" fill="#EC0000"/>
<path d="M386.906 408.041C387.485 411.005 391.736 410.522 396.437 409.362C401.138 408.202 400.043 409.587 406.741 408.846C413.438 408.105 415.499 405.592 415.692 404.594C415.886 403.724 412.569 403.402 408.995 402.983C408.544 402.918 408.093 402.886 407.642 402.822C403.617 402.306 400.687 399.729 397.049 397.602C393.603 395.573 388.419 387.357 388.419 387.357L379.21 388.098C379.21 388.098 384.04 395.444 385.907 398.633C387.002 400.502 386.938 402.983 386.809 404.916C386.777 405.947 386.712 407.01 386.906 408.041Z" fill="#E49963"/>
<path d="M396.437 409.362C401.138 408.202 400.043 409.588 406.741 408.847C413.438 408.106 415.499 405.593 415.692 404.594C415.886 403.724 412.569 403.402 408.995 402.983L408.963 403.047C408.963 403.047 404.938 405.915 399.335 406.044C394.795 406.14 389.965 404.852 386.809 404.916C386.745 405.947 386.68 407.01 386.874 408.073C387.518 411.005 391.736 410.522 396.437 409.362Z" fill="#EC0000"/>
<path d="M366.427 272.758C366.427 272.758 368.616 267.377 371.031 267.152C373.446 266.926 381.11 265.734 381.657 266.83C382.205 267.925 381.657 271.888 380.015 273.305C378.373 274.723 368.165 277.043 368.165 277.043L366.427 272.758Z" fill="#E49963"/>
<path d="M351.647 349.147L331.812 402.564C331.812 402.564 328.753 402.854 325.855 402.016C323.15 401.243 320.091 399.213 320.091 399.213C320.091 399.213 325.018 347.922 334.033 337.258C343.017 326.594 351.647 349.147 351.647 349.147Z" fill="#B40101"/>
<path d="M273.143 327.528C273.143 327.528 316.774 307.07 342.856 312.354C355.961 314.995 393.732 392.448 393.732 392.448C393.732 392.448 392.863 393.607 390.512 394.477C388.322 395.283 383.042 395.251 383.042 395.251C383.042 395.251 348.588 365.707 344.498 357.072C340.409 348.438 338.767 340.254 334.645 341.06C330.556 341.865 281.741 361.164 270.664 349.694C259.587 338.192 262.485 323.275 262.485 323.275L273.143 327.528Z" fill="#EC0000"/>
<path d="M307.984 237.801C308.885 235.932 309.916 232.582 310.399 226.621C310.334 227.201 309.304 234.708 306.406 238.961C294.556 246.758 271.823 272.758 272.274 277.687C272.274 277.687 264.256 264.091 264.127 264.027C264.127 264.027 249.348 245.243 266.864 234.483C275.752 229.006 275.719 221.982 275.333 215.893C274.947 209.804 280.517 183.514 298.324 190.376C298.324 190.376 301.19 189.12 302.478 189.281C302.478 189.281 301.447 189.474 300.9 190.022C302.961 189.893 308.338 191.246 311.075 196.272C314.231 201.975 318.03 228.555 307.984 237.801Z" fill="#2C3A64"/>
<path d="M305.73 239.38C305.794 239.412 299.998 242.408 295.651 241.216C291.562 240.089 288.889 234.805 288.954 234.773C290.693 234.418 291.176 232.034 291.143 221.821L291.916 221.982L305.086 224.592C305.086 224.592 304.796 228.748 304.764 232.646C304.796 235.9 304.989 239.025 305.73 239.38Z" fill="#E49963"/>
<path d="M305.118 224.559C305.118 224.559 304.828 228.715 304.796 232.614C297.422 232.421 293.526 225.687 291.916 221.95L305.118 224.559Z" fill="#D68D5D"/>
<path d="M290.563 220.532C290.563 220.532 286.699 214.411 285.766 209.192C285.089 205.454 286.989 191.633 300.867 193.63C300.867 193.63 304.892 194.017 308.692 196.594C311.719 198.624 316.066 203.038 311.204 215.088L309.948 219.147L290.563 220.532Z" fill="#163560"/>
<path d="M304.989 229.586C304.989 229.586 287.859 226.332 290.048 215.667C292.238 205.035 291.497 197.432 302.542 199.075C313.587 200.718 314.875 205.197 315.003 208.934C315.1 212.671 309.497 230.165 304.989 229.586Z" fill="#E49963"/>
<path d="M310.367 200.428C310.367 200.428 303.089 211.962 295.555 212.317C287.988 212.671 285.283 210.094 285.283 210.094C285.283 210.094 290.081 204.584 292.818 197.174C292.785 197.174 308.048 193.759 310.367 200.428Z" fill="#2C3A64"/>
<path d="M308.982 201.201C308.982 201.201 311.912 204.713 312.202 207.613C312.492 210.512 312.588 216.151 314.263 216.312C314.263 216.312 318.674 208.547 315.712 202.941C312.556 196.949 308.982 201.201 308.982 201.201Z" fill="#163560"/>
<path d="M266.897 286.321C265.19 279.104 271.018 265.09 277.136 253.491C282.675 242.988 288.438 234.45 288.954 234.773C303.572 243.439 304.893 236.222 304.893 236.222C304.893 236.222 318.159 237.994 321.926 244.47C327.143 253.427 332.778 280.297 338.348 279.91C340.892 279.717 366.62 270.051 366.62 270.051C366.62 270.051 370.902 274.078 370.097 278.976C370.097 278.976 357.411 287.481 346.688 292.894C341.021 295.761 335.869 297.759 333.454 297.211C328.56 296.051 320.928 284.71 316.807 278.041L316.774 278.009C311.494 307.843 318.674 314.641 315.036 317.766C311.204 321.085 305.73 316.187 293.719 321.407C285.83 324.822 274.882 329.783 267.508 330.653C263.644 331.104 260.746 330.428 259.813 327.818C257.043 320.247 270.181 300.078 266.897 286.321Z" fill="#699DEE"/>
<path d="M302.51 222.336C302.51 222.336 302.542 223.754 305.955 224.237C305.955 224.237 308.821 224.656 309.046 223.142C309.046 223.174 306.535 221.531 302.51 222.336Z" fill="white"/>
<path d="M259.78 327.85C260.714 330.46 263.612 331.137 267.476 330.686C272.564 328.463 294.621 319.925 294.363 314.126C294.009 305.556 290.113 305.266 292.85 294.698C295.039 286.193 274.689 270.406 271.437 266.958C265.319 278.557 265.158 279.105 266.864 286.321C270.181 300.079 257.043 320.247 259.78 327.85Z" fill="#EC0000"/>
<path d="M316.774 278.074C320.896 284.743 328.527 296.083 333.422 297.243C335.837 297.823 340.957 295.793 346.656 292.926C342.502 293.989 338.477 293.957 334.581 293.603C330.331 293.184 329.107 287.997 322.409 280.2C318.062 275.142 317 276.398 316.774 278.074Z" fill="#4A75CB"/>
<path d="M296.36 294.472C296.36 294.472 300.063 291.605 303.54 292.282C307.018 292.958 308.724 295.375 308.596 296.47C308.467 297.565 306.599 300.658 303.959 300.916C301.286 301.206 293.719 299.273 293.719 299.273L296.36 294.472Z" fill="#E49963"/>
<path d="M288.954 234.773C288.954 234.773 274.754 235.642 269.827 242.505C262.904 252.17 250.861 291.637 254.146 300.658L297.39 300.465C297.39 300.465 298.453 295.568 296.971 293.184C295.522 290.8 271.823 286.966 270.729 285.902C269.634 284.807 284.414 264.574 284.414 261.288C284.381 258.034 288.954 234.773 288.954 234.773Z" fill="#699DEE"/>
<path d="M309.593 280.877H361.886L352.419 313.803H300.062L309.593 280.877Z" fill="#1C468A"/>
<path d="M352.258 312.515H283.801V313.803H352.258V312.515Z" fill="#163560"/>
<path d="M331.618 296.792C331.94 295.632 333.164 294.698 334.323 294.698C335.482 294.698 336.158 295.632 335.804 296.792C335.482 297.952 334.259 298.886 333.099 298.886C331.94 298.886 331.296 297.952 331.618 296.792Z" fill="#163560"/>
<path d="M372.254 261.61L372.319 263.253L372.383 264.446L372.705 272.113L372.737 272.758L372.898 276.592H383.46L383.685 272.758L383.718 272.113L384.201 264.446L384.265 263.253L384.394 261.095L384.362 261.03C384.362 261.03 381.914 260.579 380.433 261.514C378.952 262.448 377.342 260.612 375.99 261.159C374.637 261.707 374.541 262.384 373.478 261.933C373.22 261.771 372.77 261.675 372.254 261.61Z" fill="#E37970"/>
<path opacity="0.2" d="M372.223 260.45L372.255 261.61L372.352 263.253L372.384 264.445L372.738 272.113L372.77 272.758L372.931 276.591H383.493L383.718 272.758L383.75 272.113L384.233 264.445L384.298 263.253L384.459 261.062L384.491 260.45H372.223Z" fill="#E37970"/>
<path opacity="0.2" d="M372.158 260.45C372.158 260.386 372.158 260.322 372.158 260.257C372.158 256.874 374.895 254.104 378.308 254.104C381.689 254.104 384.458 256.842 384.458 260.257C384.458 260.322 384.458 260.386 384.458 260.45H372.158Z" fill="#E37970"/>
<path d="M379.371 275.625L379.918 275.561C379.886 275.238 378.179 252.493 377.89 250.978C377.6 249.303 375.99 248.82 375.925 248.788H375.893L367.296 247.273L367.199 247.789L375.764 249.303C375.925 249.335 377.117 249.786 377.342 251.043C377.6 252.557 379.339 275.528 379.371 275.625Z" fill="#80BDCC"/>
<path d="M372.351 263.253L372.384 264.445L372.738 272.113H383.75L384.233 264.445L384.298 263.253H372.351Z" fill="#E51D21"/>
<path d="M883.011 441H2.01949C1.43989 441 0.956894 440.517 0.956894 439.937V439.228C0.956894 438.648 1.43989 438.165 2.01949 438.165H883.011C883.59 438.165 884.073 438.648 884.073 439.228V439.937C884.073 440.517 883.59 441 883.011 441Z" fill="#101720"/>
<path d="M749.091 390.257C749.091 389.999 749.091 389.709 749.123 389.452L713.961 383.556L714.154 382.46L749.316 388.356C749.735 386.552 750.765 384.973 752.15 383.846L730.801 353.335L731.703 352.691L752.182 381.977L741.138 348.825L742.2 348.47L753.663 382.879C754.597 382.428 755.66 382.138 756.755 382.042V345.281H757.882V382.042C758.526 382.074 759.137 382.203 759.717 382.364L771.116 350.564L772.178 350.951L761.327 381.204L783.126 356.074L783.964 356.815L761.23 383.008C762.422 383.652 763.42 384.587 764.161 385.714L765.449 385.489L797.23 369.348L797.745 370.346L769.184 384.844L801.03 379.367L801.223 380.463L765.803 386.552L764.869 387.035C765.288 388.034 765.513 389.097 765.513 390.257C765.513 390.483 765.513 390.708 765.481 390.901L800.611 396.121L800.45 397.216L765.32 391.997C765.255 392.319 765.159 392.641 765.03 392.963L797.133 406.753L796.683 407.784L764.579 393.994C764.579 393.994 764.579 394.027 764.547 394.027L789.727 419.447L788.922 420.22L763.935 394.993C763.42 395.702 762.808 396.346 762.1 396.862L780.583 425.955L779.649 426.567L761.166 397.474C761.005 397.571 760.844 397.635 760.683 397.732C765.288 409.91 773.756 432.173 773.949 432.817L772.887 433.171C772.694 432.624 765.255 412.971 759.62 398.151C758.848 398.376 758.043 398.505 757.238 398.505C757.109 398.505 756.98 398.505 756.819 398.505L759.749 433.816L758.622 433.913L755.692 398.376C755.338 398.312 754.984 398.215 754.662 398.118C748.866 412.423 741.234 431.206 741.009 431.818L739.946 431.464C740.139 430.852 748.801 409.523 753.599 397.699C753.502 397.635 753.406 397.603 753.277 397.538L733.667 428.564L732.733 427.952L752.343 396.926C751.57 396.346 750.894 395.637 750.347 394.832L721.238 415.033L720.594 414.098L749.799 393.833C749.413 392.77 749.091 391.546 749.091 390.257Z" fill="#415DA5"/>
<path d="M757.334 438.584C783.963 438.584 805.634 416.901 805.634 390.257C805.634 363.613 783.963 341.93 757.334 341.93C730.705 341.93 709.034 363.613 709.034 390.257C709.034 398.795 711.288 407.203 715.571 414.549C719.757 421.734 725.746 427.759 732.894 431.947C740.3 436.296 748.737 438.584 757.334 438.584ZM757.334 348.663C780.26 348.663 798.936 367.35 798.936 390.289C798.936 413.228 780.26 431.915 757.334 431.915C749.928 431.915 742.651 429.949 736.307 426.212C730.125 422.571 724.973 417.384 721.367 411.199C717.696 404.884 715.732 397.635 715.732 390.289C715.732 367.318 734.408 348.663 757.334 348.663Z" fill="#2C3A64"/>
<path d="M593.694 390.257C593.694 389.999 593.694 389.709 593.726 389.452L558.563 383.556L558.757 382.46L593.919 388.356C594.338 386.552 595.368 384.973 596.753 383.846L575.404 353.335L576.306 352.691L596.785 381.977L585.74 348.825L586.803 348.47L598.266 382.879C599.2 382.428 600.262 382.138 601.357 382.042V345.281H602.484V382.042C603.128 382.074 603.74 382.203 604.32 382.364L615.718 350.564L616.781 350.951L605.93 381.204L627.729 356.074L628.566 356.815L605.833 383.008C607.024 383.652 608.023 384.587 608.763 385.714L610.051 385.489L641.832 369.348L642.348 370.346L613.786 384.844L645.632 379.367L645.825 380.463L610.405 386.552L609.472 387.035C609.89 388.034 610.116 389.097 610.116 390.257C610.116 390.483 610.116 390.708 610.083 390.901L645.246 396.121L645.085 397.216L609.955 391.997C609.89 392.319 609.794 392.641 609.665 392.963L641.768 406.753L641.317 407.784L609.214 393.994C609.214 393.994 609.214 394.027 609.182 394.027L634.362 419.447L633.557 420.22L608.57 394.993C608.055 395.702 607.443 396.346 606.735 396.862L625.217 425.955L624.284 426.567L605.801 397.474C605.64 397.571 605.479 397.635 605.318 397.732C609.922 409.91 618.391 432.173 618.584 432.817L617.522 433.171C617.328 432.624 609.89 412.971 604.255 398.151C603.482 398.376 602.677 398.505 601.872 398.505C601.744 398.505 601.615 398.505 601.454 398.505L604.384 433.816L603.257 433.913L600.327 398.376C599.973 398.312 599.618 398.215 599.296 398.118C593.5 412.423 585.869 431.206 585.644 431.818L584.581 431.464C584.774 430.852 593.436 409.523 598.234 397.699C598.137 397.635 598.041 397.603 597.912 397.538L578.302 428.564L577.368 427.952L596.978 396.926C596.205 396.346 595.529 395.637 594.982 394.832L565.873 415.033L565.229 414.098L594.434 393.833C593.983 392.77 593.694 391.546 593.694 390.257Z" fill="#415DA5"/>
<path d="M601.937 438.584C628.567 438.584 650.237 416.901 650.237 390.257C650.237 363.613 628.567 341.93 601.937 341.93C575.308 341.93 553.637 363.613 553.637 390.257C553.637 398.795 555.891 407.203 560.174 414.549C564.36 421.734 570.349 427.759 577.497 431.947C584.871 436.296 593.34 438.584 601.937 438.584ZM601.937 348.663C624.864 348.663 643.54 367.35 643.54 390.289C643.54 413.228 624.864 431.915 601.937 431.915C594.531 431.915 587.254 429.949 580.911 426.212C574.728 422.571 569.576 417.384 565.97 411.199C562.299 404.884 560.335 397.635 560.335 390.289C560.335 367.318 579.011 348.663 601.937 348.663Z" fill="#2C3A64"/>
<path d="M696.058 382.589L701.596 381.493C701.596 381.493 688.362 329.107 690.165 324.79C691.646 321.214 706.909 318.604 714.379 312.321C715.989 310.968 717.181 309.518 717.889 307.811C721.882 298.081 715.377 290.864 715.377 290.864C715.377 290.864 701.789 293.989 689.489 299.241C680.698 303.01 672.584 307.908 670.33 313.546C664.953 327.303 696.058 382.589 696.058 382.589Z" fill="#1E3D70"/>
<path d="M680.988 390.643C681.085 390.096 681.439 389.612 681.986 389.322C683.306 388.581 686.011 387.55 688.008 384.844C689.135 383.33 693.836 378.851 693.836 378.851H693.868C693.997 378.819 694.609 378.819 697.571 380.043C699.117 380.656 700.695 377.788 700.695 377.788C700.695 377.788 701.178 377.982 701.628 378.465C701.983 378.851 702.337 379.399 702.369 380.205C702.433 381.332 703.593 383.136 704.462 384.328C704.977 385.07 705.396 385.553 705.396 385.553C705.396 385.553 705.718 386.165 703.11 387.164L699.986 387.969C698.891 388.098 698.054 388.034 696.959 388.195C695.285 388.42 694.673 389.226 694.577 389.387C694.577 389.419 694.544 389.419 694.544 389.419L681.246 392.866C680.795 392.512 680.859 391.449 680.988 390.643Z" fill="#415DA5"/>
<path d="M635.264 314.931L640.867 309.132L640.384 308.133L641.285 308.745V308.777L704.687 351.692L718.823 307.456L723.621 309.003L709.034 354.656L757.849 387.679C760.103 389.193 759.202 392.705 756.497 392.963L697.635 398.086L697.185 393.092L750.057 388.485L707.038 360.938L695.253 397.86L690.455 396.314L691.807 392.093L688.587 394.155L635.264 314.931ZM702.659 358.006L651.654 325.337L692.29 390.482L702.659 358.006Z" fill="#F2994A"/>
<path d="M624.477 327.754C625.411 325.434 627.922 324.21 630.273 324.854C637.582 305.846 640.03 299.595 640.899 297.437L634.942 293.635C633.815 293.538 632.72 293.119 631.819 292.282C630.112 290.703 629.726 288.061 630.885 286.064C632.43 283.39 635.876 282.681 638.291 284.453C640.094 285.742 640.77 287.997 640.223 289.994L652.072 297.533C653.972 296.438 656.484 296.631 658.223 298.307C659.833 299.885 660.219 302.43 659.092 304.428C657.579 307.134 654.101 307.843 651.654 306.071C650.591 305.298 649.915 304.202 649.657 303.01L645.182 300.175C643.572 304.138 638.13 317.541 634.652 326.594L604.577 391.578C603.998 392.834 602.549 393.414 601.261 392.899C599.941 392.351 599.329 390.869 599.844 389.548L624.477 327.754Z" fill="#C07431"/>
<path d="M666.53 405.173H671.135L693.095 395.154L693.9 396.926L675.836 405.173H677.381C678.669 405.173 679.7 406.237 679.7 407.493C679.7 408.782 678.637 409.813 677.381 409.813H666.498C665.21 409.813 664.179 408.75 664.179 407.493C664.179 406.204 665.242 405.173 666.53 405.173Z" fill="#415DA5"/>
<path d="M708.294 335.196C708.841 333.617 710.58 332.78 712.19 333.327L714.959 334.294C717.149 335.067 719.531 334.906 721.624 333.875C731.767 328.817 744.132 326.24 758.429 326.24C758.59 326.24 758.783 326.24 758.944 326.24C765.32 326.272 776.751 327.818 781.645 328.559C782.997 328.753 783.963 329.912 783.963 331.266V333.038C783.963 333.553 783.48 333.94 782.997 333.811C773.949 331.91 742.683 326.787 720.079 340.448C719.435 340.834 718.662 340.931 717.954 340.673L709.485 337.709C708.487 337.355 707.939 336.227 708.294 335.196Z" fill="#C07431"/>
<path d="M704.848 303.107C707.166 300.884 720.272 303.043 722.783 303.3C725.295 303.59 734.73 301.561 737.306 301.818C739.882 302.108 738.98 306.232 738.98 306.232C734.987 316.156 722.365 311.806 720.626 310.356C718.887 308.874 712.737 308.133 708.132 307.714C703.528 307.296 702.562 305.362 704.848 303.107Z" fill="#EC0000"/>
<path d="M692.838 384.393C699.761 384.393 705.396 390.031 705.396 396.958C705.396 403.885 699.761 409.523 692.838 409.523C685.915 409.523 680.28 403.885 680.28 396.958C680.28 390.031 685.915 384.393 692.838 384.393Z" fill="#2C3A64"/>
<path d="M642.702 285.871C642.735 285.871 642.735 285.871 642.767 285.871C646.953 283.583 669.203 271.308 670.201 268.376C670.813 266.572 673.614 258.904 676.673 252.106C677.446 250.431 678.477 250.592 679.249 249.078C680.924 245.824 687.267 248.498 688.491 247.95C692.484 246.146 696.863 244.567 696.863 248.562C696.863 248.562 695.736 251.462 693.997 255.489C693.321 257.1 692.516 258.872 691.711 260.708C688.265 268.279 683.757 276.946 680.634 278.493C675.579 280.973 656.484 289.06 649.046 290.445C649.046 290.445 645.472 293.989 644.667 294.634C643.862 295.31 642.091 296.051 640.352 295.439C638.613 294.827 638.677 291.96 638.581 291.251C638.516 290.542 638.838 286.966 642.702 285.871Z" fill="#A86337"/>
<path d="M677.285 234.289C677.285 234.289 678.509 237.028 680.28 240.153C680.376 240.314 680.473 240.475 680.569 240.636C681.954 242.988 683.596 245.501 685.271 247.112L700.179 240.153C700.179 240.153 693.385 234.869 690.165 229.618C689.843 229.07 689.553 228.554 689.296 228.007L686.398 227.91L677.285 234.289Z" fill="#B77446"/>
<path d="M677.285 234.289C677.285 234.289 678.509 237.028 680.28 240.153C680.376 240.314 680.473 240.475 680.569 240.636C685.754 237.833 688.877 232.292 690.165 229.585C689.843 229.038 689.553 228.522 689.296 227.974L686.398 227.878L677.285 234.289Z" fill="#A86337"/>
<path d="M672.906 234.064C672.906 234.064 690.068 236.77 691.582 226.042C693.095 215.313 696.315 208.451 685.432 206.26C674.548 204.101 671.811 207.871 670.459 211.318C669.074 214.798 668.462 233.097 672.906 234.064Z" fill="#B77446"/>
<path d="M697.12 204.327C697.12 204.327 696.348 204.488 695.704 205.132C695.671 202.812 693.385 200.493 693.385 200.493C694.48 201.878 694.126 204.391 694.126 204.391C690.906 198.85 675.16 203.199 673.679 203.586C672.198 203.94 671.167 201.749 671.167 201.749C668.849 203.779 667.947 208.708 669.879 211.93C671.811 215.152 678.09 219.92 679.893 219.018C681.697 218.116 681.697 219.985 681.6 222.594C681.504 225.204 686.044 229.618 689.264 230.262C691.84 230.778 692.033 229.006 692.741 227.878C692.902 227.588 693.128 227.33 693.353 227.105C696.863 223.915 698.795 217.6 698.022 211.35C697.7 208.869 696.67 206.775 696.122 205.776C696.316 205.39 696.766 204.649 697.12 204.327Z" fill="#2C3A64"/>
<path d="M676.512 251.268C677.865 251.687 681.085 252.911 681.954 254.393C682.856 255.875 692.387 251.752 693.482 247.918C690.745 244.921 686.076 242.376 683.371 243.246C681.793 243.697 679.217 247.112 676.512 251.268Z" fill="#B40101"/>
<path d="M681.471 331.04C683.017 327.947 701.145 293.764 701.145 293.764C701.338 293.764 728.483 276.688 728.483 276.688C728.483 276.688 733.184 282.101 734.601 290.188C735.116 292.217 735.567 294.537 735.792 297.147C736.597 306.619 695.832 344.475 694.898 349.726C692.677 362.163 679.281 387.776 672.97 400.502L667.947 398.569C667.947 398.569 677.897 338.257 681.471 331.04Z" fill="#2A4E96"/>
<path d="M681.761 257.39L686.076 263.543L686.43 264.317L695.414 284.872L697.861 294.505C697.958 294.891 698.247 295.149 698.634 295.214C702.015 295.794 708.938 295.504 711.321 294.634C722.043 290.961 729.288 284.904 732.057 282.294C732.83 281.553 733.088 280.426 732.669 279.427C724.555 259.194 711.932 245.92 709.711 243.439C705.718 239.122 695.317 235.578 695.317 235.578C692.451 238.51 682.276 243.665 682.276 243.665C680.022 245.437 681.761 257.39 681.761 257.39Z" fill="#D30000"/>
<path d="M686.429 264.349L695.413 284.904C702.24 271.114 697.925 251.075 697.925 251.075C697.925 251.075 686.944 260.579 686.558 261.32C686.526 261.449 686.429 262.577 686.429 264.349Z" fill="#000"/>
<path d="M645.761 288.899C645.793 288.899 645.793 288.899 645.825 288.899C650.011 286.611 672.294 274.336 673.26 271.404C673.872 269.6 676.673 261.932 679.732 255.134C680.505 253.459 681.278 251.816 682.083 250.302C683.757 247.048 685.367 244.599 686.591 244.019C690.584 242.215 699.954 247.595 699.954 251.59C699.954 251.59 698.827 254.49 697.088 258.517C696.412 260.128 695.607 261.9 694.802 263.737C691.356 271.308 686.848 279.974 683.725 281.521C678.67 284.002 659.575 292.088 652.137 293.474C652.137 293.474 648.562 297.018 647.757 297.662C646.952 298.339 645.182 299.08 643.443 298.468C641.704 297.855 641.35 295.536 641.253 294.795C641.124 294.086 640.416 290.252 645.761 288.899Z" fill="#B77446"/>
<path d="M679.314 255.199C683.081 256.906 689.875 260.225 694.963 264.155C695.832 262.222 696.637 260.386 697.346 258.71C699.149 254.522 700.308 251.526 700.308 251.526C700.308 247.402 690.551 241.764 686.43 243.665C685.174 244.245 683.5 246.822 681.761 250.173C680.956 251.719 680.151 253.427 679.314 255.199Z" fill="#D30000"/>
<path d="M675.289 405.494H672.069C670.974 405.333 670.201 405.075 669.074 404.946C667.4 404.753 666.595 405.365 666.466 405.494C666.434 405.526 666.434 405.526 666.434 405.526H652.684C652.33 405.075 652.684 404.076 653.006 403.335C653.232 402.82 653.715 402.433 654.294 402.304C655.743 401.918 658.609 401.596 661.249 399.501C662.731 398.309 668.398 395.152 668.398 395.152H668.43C668.559 395.152 669.139 395.313 671.715 397.246C673.035 398.245 675.321 395.829 675.321 395.829C675.321 395.829 675.74 396.151 676.062 396.731C676.319 397.182 676.512 397.826 676.351 398.599C676.158 399.695 676.802 401.725 677.35 403.11C677.672 403.948 677.929 404.527 677.929 404.527C677.929 404.527 678.058 405.172 675.289 405.494Z" fill="#739CF3"/>
<path d="M676.029 396.7C675.256 397.184 673.614 398.118 672.552 398.247C671.103 398.408 668.366 395.122 668.366 395.122H668.398C668.527 395.122 669.106 395.283 671.682 397.216C673.002 398.215 675.289 395.798 675.289 395.798C675.289 395.798 675.707 396.12 676.029 396.7Z" fill="#415DA5"/>
<path d="M675.289 405.496H672.069C670.974 405.335 670.201 405.077 669.074 404.948C667.4 404.755 666.595 405.367 666.466 405.496C666.434 405.528 666.434 405.528 666.434 405.528H652.684C652.33 405.077 652.684 404.078 653.006 403.337C653.425 403.015 653.554 404.755 653.779 405.045C654.004 405.335 664.985 405.141 665.629 404.755C666.273 404.336 668.172 403.627 670.813 404.207C673.131 404.69 676.512 403.434 677.35 403.112C677.672 403.949 677.929 404.529 677.929 404.529C677.929 404.529 678.058 405.173 675.289 405.496Z" fill="#415DA5"/>
</g>
<defs>
<clipPath id="clip0">
<rect width="883.116" height="441" fill="white" transform="translate(0.95697)"/>
</clipPath>
</defs>
</svg>
