<svg width="150" height="150" viewBox="0 0 1081 1081" fill="none" xmlns="http://www.w3.org/2000/svg">
<g clip-path="url(#clip0)">
<path d="M540.711 1080.51C838.945 1080.51 1080.71 838.744 1080.71 540.51C1080.71 242.276 838.945 0.509766 540.711 0.509766C242.478 0.509766 0.711426 242.276 0.711426 540.51C0.711426 838.744 242.478 1080.51 540.711 1080.51Z" fill="#F7FBFE"/>
<path d="M857.309 240.688V354.089H198.993V240.688C198.993 223.737 208.536 209.009 222.557 201.616C228.713 198.347 235.723 196.506 243.175 196.506H813.126C830.078 196.506 844.805 206.049 852.198 220.07C855.468 226.226 857.309 233.236 857.309 240.688Z" fill="#008EDE"/>
<path d="M375.721 196.506V278.979C375.721 287.109 369.124 293.707 360.994 293.707H293.248C285.118 293.707 278.521 287.109 278.521 278.979V196.506H375.721Z" fill="#047ABC"/>
<path d="M754.217 196.506V278.979C754.217 287.109 747.619 293.707 739.489 293.707H671.743C663.614 293.707 657.016 287.109 657.016 278.979V196.506H754.217Z" fill="#047ABC"/>
<path d="M222.557 201.6V354.073H198.993V240.671C198.993 223.72 208.536 208.993 222.557 201.6Z" fill="#047ABC"/>
<path d="M319.759 442.178H395.532C399.598 442.178 402.896 445.475 402.896 449.541V525.314C402.896 529.38 399.598 532.678 395.532 532.678H319.759C315.693 532.678 312.396 529.38 312.396 525.314V449.541C312.396 445.475 315.693 442.178 319.759 442.178Z" fill="#D5E9FF"/>
<path d="M319.759 554.773H395.532C399.598 554.773 402.896 558.071 402.896 562.137V637.925C402.896 641.991 399.598 645.288 395.532 645.288H319.759C315.693 645.288 312.396 641.991 312.396 637.925V562.137C312.396 558.071 315.693 554.773 319.759 554.773Z" fill="#D5E9FF"/>
<path d="M319.759 667.367H395.532C399.598 667.367 402.896 670.665 402.896 674.731V750.503C402.896 754.57 399.598 757.867 395.532 757.867H319.759C315.693 757.867 312.396 754.57 312.396 750.503V674.731C312.396 670.665 315.693 667.367 319.759 667.367Z" fill="#D5E9FF"/>
<path d="M432.351 442.178H509.743C513.81 442.178 517.107 445.475 517.107 449.541V525.314C517.107 529.38 513.81 532.678 509.743 532.678H432.351C428.284 532.678 424.987 529.38 424.987 525.314V449.541C424.987 445.475 428.284 442.178 432.351 442.178Z" fill="#D5E9FF"/>
<path d="M432.351 554.773H509.743C513.81 554.773 517.107 558.071 517.107 562.137V637.925C517.107 641.991 513.81 645.288 509.743 645.288H432.351C428.284 645.288 424.987 641.991 424.987 637.925V562.137C424.987 558.071 428.284 554.773 432.351 554.773Z" fill="#D5E9FF"/>
<path d="M432.351 667.367H509.743C513.81 667.367 517.107 670.665 517.107 674.731V750.503C517.107 754.57 513.81 757.867 509.743 757.867H432.351C428.284 757.867 424.987 754.57 424.987 750.503V674.731C424.987 670.665 428.284 667.367 432.351 667.367Z" fill="#D5E9FF"/>
<path d="M546.562 442.178H623.955C628.021 442.178 631.318 445.475 631.318 449.541V525.314C631.318 529.38 628.021 532.678 623.955 532.678H546.562C542.496 532.678 539.198 529.38 539.198 525.314V449.541C539.198 445.475 542.496 442.178 546.562 442.178Z" fill="#D5E9FF"/>
<path d="M546.562 554.773H623.955C628.021 554.773 631.318 558.071 631.318 562.137V637.925C631.318 641.991 628.021 645.288 623.955 645.288H546.562C542.496 645.288 539.198 641.991 539.198 637.925V562.137C539.198 558.071 542.496 554.773 546.562 554.773Z" fill="#D5E9FF"/>
<path d="M546.562 667.367H623.955C628.021 667.367 631.318 670.665 631.318 674.731V750.503C631.318 754.57 628.021 757.867 623.955 757.867H546.562C542.496 757.867 539.198 754.57 539.198 750.503V674.731C539.198 670.665 542.496 667.367 546.562 667.367Z" fill="#D5E9FF"/>
<path d="M743.91 449.541V525.314C743.91 529.38 740.613 532.678 736.547 532.678H660.774C656.708 532.678 653.41 529.38 653.41 525.314V449.541C653.41 445.475 656.708 442.178 660.774 442.178H736.547C740.613 442.178 743.91 445.475 743.91 449.541Z" fill="#D5E9FF"/>
<path d="M660.774 554.773H736.547C740.613 554.773 743.91 558.071 743.91 562.137V637.925C743.91 641.991 740.613 645.288 736.547 645.288H660.774C656.708 645.288 653.41 641.991 653.41 637.925V562.137C653.41 558.071 656.708 554.773 660.774 554.773Z" fill="#D5E9FF"/>
<path d="M660.774 667.367H736.547C740.613 667.367 743.91 670.665 743.91 674.731V750.503C743.91 754.57 740.613 757.867 736.547 757.867H660.774C656.708 757.867 653.41 754.57 653.41 750.503V674.731C653.41 670.665 656.708 667.367 660.774 667.367Z" fill="#D5E9FF"/>
<path d="M198.993 343.773V810.633C198.993 835.036 218.772 854.815 243.175 854.815H813.126C837.53 854.815 857.309 835.036 857.309 810.633V343.773H198.993Z" fill="#E9F3FF"/>
<path d="M375.721 137.591V255.41C375.721 263.54 369.123 270.138 360.994 270.138H316.811C308.682 270.138 302.084 263.54 302.084 255.41V137.591C302.084 129.461 308.682 122.863 316.811 122.863H360.994C369.123 122.863 375.721 129.461 375.721 137.591Z" fill="#3E5372"/>
<path d="M312.396 442.178H402.896V532.678H312.396V442.178Z" fill="#06C7E0"/>
<path d="M653.409 442.178H743.909V532.678H653.409V442.178Z" fill="#06C7E0"/>
<path d="M424.985 442.178H517.105V532.678H424.985V442.178Z" fill="#06C7E0"/>
<path d="M312.395 554.773H402.895V645.288H312.395V554.773Z" fill="#06C7E0"/>
<path d="M653.409 554.773H743.909V645.288H653.409V554.773Z" fill="#B8D8EC"/>
<path d="M424.985 554.773H517.105V645.288H424.985V554.773Z" fill="#06C7E0"/>
<path d="M312.395 667.367H402.895V757.867H312.395V667.367Z" fill="#B8D8EC"/>
<path d="M653.409 667.367H743.909V757.867H653.409V667.367Z" fill="#B8D8EC"/>
<path d="M424.985 667.367H517.105V757.867H424.985V667.367Z" fill="#B8D8EC"/>
<path d="M539.198 442.178H631.318V532.678H539.198V442.178Z" fill="#06C7E0"/>
<path d="M539.198 554.773H631.318V645.288H539.198V554.773Z" fill="#06C7E0"/>
<path d="M539.198 667.367H631.318V757.867H539.198V667.367Z" fill="#B8D8EC"/>
<path d="M754.218 137.591V255.41C754.218 263.54 747.62 270.138 739.49 270.138H695.308C687.178 270.138 680.581 263.54 680.581 255.41V137.591C680.581 129.461 687.178 122.863 695.308 122.863H739.49C747.62 122.863 754.218 129.461 754.218 137.591Z" fill="#3E5372"/>
<path fill-rule="evenodd" clip-rule="evenodd" d="M198.993 810.633V343.773H222.553V351.822V811.369C222.553 833.048 238.149 851.074 258.753 854.815H242.435C218.032 854.815 198.993 835.036 198.993 810.633Z" fill="#D5E9FF"/>
<path d="M340.375 270.138H316.811C308.682 270.138 302.084 263.54 302.084 255.41V137.591C302.084 129.461 308.682 122.863 316.811 122.863H325.648V255.41C325.648 263.54 332.246 270.138 340.375 270.138Z" fill="#2F435F"/>
<path d="M718.872 270.138H695.308C687.178 270.138 680.581 263.54 680.581 255.41V137.591C680.581 129.461 687.178 122.863 695.308 122.863H704.144V255.41C704.144 263.54 710.742 270.138 718.872 270.138Z" fill="#2F435F"/>
<g clip-path="url(#clip1)">
<path d="M673.894 720.645L636.83 733.243L646.05 695.197L673.894 720.645Z" fill="#3E5372"/>
<path d="M737.97 698.863L673.894 720.623L646.05 695.175L661.971 629.405L737.97 698.863Z" fill="#FED19A"/>
<path d="M661.949 629.412L941.308 323.746L1017.29 393.191L737.934 698.857L661.949 629.412Z" fill="#8CC63F"/>
<path d="M699.945 664.129L979.304 358.463L1017.3 393.186L737.938 698.851L699.945 664.129Z" fill="#7DBC29"/>
<path d="M940.414 324.756L962.23 300.885L1038.21 370.33L1016.4 394.201L940.414 324.756Z" fill="#EEEFEE"/>
<path d="M1063.13 342.673L1033.55 375.041L957.554 305.582L987.136 273.215C994.11 265.584 1005.95 265.052 1013.58 272.026L1061.94 316.229C1069.58 323.204 1070.11 335.042 1063.13 342.673Z" fill="#008EDE"/>
<path fill-rule="evenodd" clip-rule="evenodd" d="M1033.55 375.041L1063.13 342.673C1070.11 335.042 1069.58 323.204 1061.94 316.229L1037.76 294.127L995.553 340.312L1033.55 375.041Z" fill="#047ABC"/>
</g>
</g>
<defs>
<clipPath id="clip0">
<rect width="1080" height="1080" fill="white" transform="translate(0.711426 0.509766)"/>
</clipPath>
<clipPath id="clip1">
<rect width="449.297" height="449.297" fill="white" transform="translate(616.648 284.377) rotate(-2.57473)"/>
</clipPath>
</defs>
</svg>
